<mxfile host="app.diagrams.net" modified="2023-02-05T03:42:12.441Z" agent="5.0 (Macintosh; Intel Mac OS X 10_15_7) AppleWebKit/537.36 (KHTML, like Gecko) Chrome/109.0.0.0 Safari/537.36" etag="Y1pkGr-SdTqM0w901aaN" version="20.8.15" type="github" pages="2">
  <diagram name="第 1 页" id="3zPPjx7S2HPDRmVprN2L">
    <mxGraphModel dx="2133" dy="748" grid="1" gridSize="10" guides="1" tooltips="1" connect="1" arrows="1" fold="1" page="1" pageScale="1" pageWidth="827" pageHeight="1169" math="0" shadow="0">
      <root>
        <mxCell id="0" />
        <mxCell id="1" parent="0" />
        <mxCell id="wBROcGtq3F3iNGBF5Kgz-11" value="" style="rounded=0;whiteSpace=wrap;html=1;fontSize=14;dashed=1;strokeWidth=3;strokeColor=#FFB570;" vertex="1" parent="1">
          <mxGeometry x="480" y="130" width="290" height="150" as="geometry" />
        </mxCell>
        <mxCell id="wBROcGtq3F3iNGBF5Kgz-9" value="" style="rounded=0;whiteSpace=wrap;html=1;fontSize=14;dashed=1;strokeWidth=3;strokeColor=#FFB570;" vertex="1" parent="1">
          <mxGeometry x="110" y="130" width="290" height="150" as="geometry" />
        </mxCell>
        <mxCell id="wBROcGtq3F3iNGBF5Kgz-1" value="" style="rounded=0;whiteSpace=wrap;html=1;strokeColor=#FF6666;" vertex="1" parent="1">
          <mxGeometry x="170" y="160" width="150" height="70" as="geometry" />
        </mxCell>
        <mxCell id="wBROcGtq3F3iNGBF5Kgz-3" value="&lt;font style=&quot;font-size: 14px;&quot;&gt;渲染进程&lt;br&gt;（Render Process）&lt;br&gt;&lt;/font&gt;" style="rounded=0;whiteSpace=wrap;html=1;strokeColor=#FF6666;" vertex="1" parent="1">
          <mxGeometry x="180" y="170" width="150" height="70" as="geometry" />
        </mxCell>
        <mxCell id="wBROcGtq3F3iNGBF5Kgz-4" value="" style="rounded=0;whiteSpace=wrap;html=1;strokeColor=#FF6666;" vertex="1" parent="1">
          <mxGeometry x="540" y="160" width="150" height="70" as="geometry" />
        </mxCell>
        <mxCell id="wBROcGtq3F3iNGBF5Kgz-5" value="&lt;font style=&quot;font-size: 14px;&quot;&gt;插件进程&lt;br&gt;（Plugin Process）&lt;/font&gt;" style="rounded=0;whiteSpace=wrap;html=1;strokeColor=#FF6666;" vertex="1" parent="1">
          <mxGeometry x="550" y="170" width="150" height="70" as="geometry" />
        </mxCell>
        <mxCell id="wBROcGtq3F3iNGBF5Kgz-12" value="" style="edgeStyle=orthogonalEdgeStyle;rounded=0;orthogonalLoop=1;jettySize=auto;html=1;fontSize=14;" edge="1" parent="1" source="wBROcGtq3F3iNGBF5Kgz-6" target="wBROcGtq3F3iNGBF5Kgz-9">
          <mxGeometry relative="1" as="geometry" />
        </mxCell>
        <mxCell id="wBROcGtq3F3iNGBF5Kgz-6" value="网络进程&lt;br&gt;（Network Process）" style="rounded=0;whiteSpace=wrap;html=1;strokeColor=#6c8ebf;fontSize=14;fillColor=#dae8fc;direction=west;" vertex="1" parent="1">
          <mxGeometry x="-1" y="360" width="230" height="140" as="geometry" />
        </mxCell>
        <mxCell id="wBROcGtq3F3iNGBF5Kgz-7" value="浏览器主进程&lt;br&gt;（Browser Process）" style="rounded=0;whiteSpace=wrap;html=1;strokeColor=#d6b656;fontSize=14;fillColor=#fff2cc;" vertex="1" parent="1">
          <mxGeometry x="299" y="360" width="230" height="140" as="geometry" />
        </mxCell>
        <mxCell id="wBROcGtq3F3iNGBF5Kgz-8" value="GPU进程&lt;br&gt;（GPU Process）" style="rounded=0;whiteSpace=wrap;html=1;strokeColor=#6c8ebf;fontSize=14;fillColor=#dae8fc;" vertex="1" parent="1">
          <mxGeometry x="599" y="360" width="230" height="140" as="geometry" />
        </mxCell>
      </root>
    </mxGraphModel>
  </diagram>
  <diagram id="h-yJrDjjqXi07iSDTxS3" name="第 2 页">
    <mxGraphModel dx="1832" dy="575" grid="1" gridSize="10" guides="1" tooltips="1" connect="1" arrows="1" fold="1" page="1" pageScale="1" pageWidth="827" pageHeight="1169" math="0" shadow="0">
      <root>
        <mxCell id="0" />
        <mxCell id="1" parent="0" />
        <mxCell id="qJF8WgJsKNdLkxC4-ePz-1" value="" style="rounded=0;whiteSpace=wrap;html=1;strokeColor=#6c8ebf;strokeWidth=3;fontSize=14;fillColor=none;" vertex="1" parent="1">
          <mxGeometry x="129" y="140" width="2931" height="220" as="geometry" />
        </mxCell>
        <mxCell id="qJF8WgJsKNdLkxC4-ePz-2" value="浏览器进程" style="text;html=1;align=center;verticalAlign=middle;resizable=0;points=[];autosize=1;strokeColor=none;fillColor=none;fontSize=14;rounded=0;" vertex="1" parent="1">
          <mxGeometry x="20" y="235" width="90" height="30" as="geometry" />
        </mxCell>
        <mxCell id="qJF8WgJsKNdLkxC4-ePz-3" value="" style="rounded=0;whiteSpace=wrap;html=1;strokeColor=#A680B8;strokeWidth=3;fontSize=14;fillColor=none;" vertex="1" parent="1">
          <mxGeometry x="129" y="400" width="2931" height="200" as="geometry" />
        </mxCell>
        <mxCell id="qJF8WgJsKNdLkxC4-ePz-4" value="网络进程" style="text;html=1;align=center;verticalAlign=middle;resizable=0;points=[];autosize=1;strokeColor=none;fillColor=none;fontSize=14;rounded=0;" vertex="1" parent="1">
          <mxGeometry x="20" y="485" width="80" height="30" as="geometry" />
        </mxCell>
        <mxCell id="qJF8WgJsKNdLkxC4-ePz-5" value="" style="rounded=0;whiteSpace=wrap;html=1;strokeColor=#6c8ebf;strokeWidth=3;fontSize=14;fillColor=none;" vertex="1" parent="1">
          <mxGeometry x="129" y="680" width="2931" height="120" as="geometry" />
        </mxCell>
        <mxCell id="qJF8WgJsKNdLkxC4-ePz-6" value="渲染进程（备用）" style="text;html=1;align=center;verticalAlign=middle;resizable=0;points=[];autosize=1;strokeColor=none;fillColor=none;fontSize=14;rounded=0;" vertex="1" parent="1">
          <mxGeometry x="-10" y="725" width="140" height="30" as="geometry" />
        </mxCell>
        <mxCell id="qJF8WgJsKNdLkxC4-ePz-7" value="用户输入" style="rounded=0;whiteSpace=wrap;html=1;strokeColor=#6c8ebf;strokeWidth=1;fontSize=14;fillColor=#dae8fc;" vertex="1" parent="1">
          <mxGeometry x="160" y="220" width="110" height="60" as="geometry" />
        </mxCell>
        <mxCell id="qJF8WgJsKNdLkxC4-ePz-9" value="处理成符合标准的URL" style="rounded=0;whiteSpace=wrap;html=1;strokeColor=#6c8ebf;strokeWidth=1;fontSize=14;fillColor=#dae8fc;" vertex="1" parent="1">
          <mxGeometry x="310" y="220" width="120" height="60" as="geometry" />
        </mxCell>
        <mxCell id="qJF8WgJsKNdLkxC4-ePz-10" value="" style="endArrow=classic;html=1;rounded=0;fontSize=14;strokeWidth=6;" edge="1" parent="1">
          <mxGeometry width="50" height="50" relative="1" as="geometry">
            <mxPoint x="100" y="100" as="sourcePoint" />
            <mxPoint x="980" y="100" as="targetPoint" />
            <Array as="points">
              <mxPoint x="135" y="100" />
            </Array>
          </mxGeometry>
        </mxCell>
        <mxCell id="qJF8WgJsKNdLkxC4-ePz-11" value="时间线" style="text;html=1;align=center;verticalAlign=middle;resizable=0;points=[];autosize=1;strokeColor=none;fillColor=none;fontSize=14;rounded=0;" vertex="1" parent="1">
          <mxGeometry x="490" y="60" width="70" height="30" as="geometry" />
        </mxCell>
        <mxCell id="qJF8WgJsKNdLkxC4-ePz-12" value="DNS请求&lt;br&gt;获取IP地址" style="rounded=0;whiteSpace=wrap;html=1;strokeColor=#9673a6;strokeWidth=1;fontSize=14;fillColor=#e1d5e7;" vertex="1" parent="1">
          <mxGeometry x="474.5" y="467" width="120" height="60" as="geometry" />
        </mxCell>
        <mxCell id="qJF8WgJsKNdLkxC4-ePz-13" value="建立TCP连接" style="rounded=0;whiteSpace=wrap;html=1;strokeColor=#9673a6;strokeWidth=1;fontSize=14;fillColor=#e1d5e7;" vertex="1" parent="1">
          <mxGeometry x="630" y="467" width="120" height="60" as="geometry" />
        </mxCell>
        <mxCell id="qJF8WgJsKNdLkxC4-ePz-14" value="建立TLS连接" style="rounded=0;whiteSpace=wrap;html=1;strokeColor=#A680B8;strokeWidth=2;fontSize=14;fillColor=none;dashed=1;" vertex="1" parent="1">
          <mxGeometry x="790" y="467" width="120" height="60" as="geometry" />
        </mxCell>
        <mxCell id="qJF8WgJsKNdLkxC4-ePz-15" value="构建请求消息&lt;br&gt;（请求头、请求行等）" style="rounded=0;whiteSpace=wrap;html=1;strokeColor=#9673a6;strokeWidth=1;fontSize=14;fillColor=#e1d5e7;" vertex="1" parent="1">
          <mxGeometry x="950" y="467" width="120" height="60" as="geometry" />
        </mxCell>
        <mxCell id="qJF8WgJsKNdLkxC4-ePz-18" style="edgeStyle=orthogonalEdgeStyle;rounded=0;orthogonalLoop=1;jettySize=auto;html=1;strokeWidth=4;fontSize=14;entryX=0.435;entryY=-0.005;entryDx=0;entryDy=0;entryPerimeter=0;" edge="1" parent="1">
          <mxGeometry relative="1" as="geometry">
            <mxPoint x="1156.0500000000002" y="830" as="targetPoint" />
            <mxPoint x="1156" y="491" as="sourcePoint" />
            <Array as="points">
              <mxPoint x="1156" y="576" />
              <mxPoint x="1156" y="576" />
            </Array>
          </mxGeometry>
        </mxCell>
        <mxCell id="qJF8WgJsKNdLkxC4-ePz-21" value="请求" style="edgeLabel;html=1;align=center;verticalAlign=middle;resizable=0;points=[];fontSize=14;rounded=0;" vertex="1" connectable="0" parent="qJF8WgJsKNdLkxC4-ePz-18">
          <mxGeometry x="-0.0164" y="-3" relative="1" as="geometry">
            <mxPoint y="1" as="offset" />
          </mxGeometry>
        </mxCell>
        <mxCell id="qJF8WgJsKNdLkxC4-ePz-16" value="发起HTTP请求" style="rounded=0;whiteSpace=wrap;html=1;strokeColor=#9673a6;strokeWidth=1;fontSize=14;fillColor=#e1d5e7;" vertex="1" parent="1">
          <mxGeometry x="1110" y="467" width="120" height="60" as="geometry" />
        </mxCell>
        <mxCell id="qJF8WgJsKNdLkxC4-ePz-19" style="edgeStyle=orthogonalEdgeStyle;rounded=0;orthogonalLoop=1;jettySize=auto;html=1;strokeWidth=4;fontSize=14;" edge="1" parent="1">
          <mxGeometry relative="1" as="geometry">
            <mxPoint x="1193" y="838" as="sourcePoint" />
            <mxPoint x="1193" y="527" as="targetPoint" />
          </mxGeometry>
        </mxCell>
        <mxCell id="qJF8WgJsKNdLkxC4-ePz-20" value="响应" style="edgeLabel;html=1;align=center;verticalAlign=middle;resizable=0;points=[];fontSize=14;rounded=0;" vertex="1" connectable="0" parent="qJF8WgJsKNdLkxC4-ePz-19">
          <mxGeometry x="0.1289" y="-3" relative="1" as="geometry">
            <mxPoint as="offset" />
          </mxGeometry>
        </mxCell>
        <mxCell id="qJF8WgJsKNdLkxC4-ePz-17" value="Server" style="rounded=0;whiteSpace=wrap;html=1;strokeColor=#b85450;strokeWidth=2;fontSize=14;fillColor=#f8cecc;" vertex="1" parent="1">
          <mxGeometry x="1070" y="830" width="230" height="200" as="geometry" />
        </mxCell>
        <mxCell id="qJF8WgJsKNdLkxC4-ePz-22" value="解析请求头" style="rounded=0;whiteSpace=wrap;html=1;strokeColor=#9673a6;strokeWidth=1;fontSize=14;fillColor=#e1d5e7;" vertex="1" parent="1">
          <mxGeometry x="1270" y="467" width="120" height="60" as="geometry" />
        </mxCell>
        <mxCell id="qJF8WgJsKNdLkxC4-ePz-24" value="读取Content-Type&lt;br&gt;决定下一步" style="rounded=0;whiteSpace=wrap;html=1;strokeColor=#6c8ebf;strokeWidth=1;fontSize=14;fillColor=#dae8fc;" vertex="1" parent="1">
          <mxGeometry x="1590" y="220" width="120" height="60" as="geometry" />
        </mxCell>
        <mxCell id="qJF8WgJsKNdLkxC4-ePz-38" style="edgeStyle=orthogonalEdgeStyle;orthogonalLoop=1;jettySize=auto;html=1;entryX=0.5;entryY=0;entryDx=0;entryDy=0;strokeColor=#6C8EBF;strokeWidth=2;fontSize=14;endSize=8;" edge="1" parent="1" source="qJF8WgJsKNdLkxC4-ePz-25" target="qJF8WgJsKNdLkxC4-ePz-37">
          <mxGeometry relative="1" as="geometry" />
        </mxCell>
        <mxCell id="qJF8WgJsKNdLkxC4-ePz-25" value="提交导航（Commit&lt;br&gt;Navigation）" style="rounded=0;whiteSpace=wrap;html=1;strokeColor=#6c8ebf;strokeWidth=1;fontSize=14;fillColor=#dae8fc;" vertex="1" parent="1">
          <mxGeometry x="1750" y="170" width="120" height="60" as="geometry" />
        </mxCell>
        <mxCell id="qJF8WgJsKNdLkxC4-ePz-31" style="edgeStyle=orthogonalEdgeStyle;orthogonalLoop=1;jettySize=auto;html=1;entryX=0.5;entryY=0;entryDx=0;entryDy=0;endSize=8;strokeWidth=2;strokeColor=#A680B8;" edge="1" parent="1" source="qJF8WgJsKNdLkxC4-ePz-28" target="qJF8WgJsKNdLkxC4-ePz-12">
          <mxGeometry relative="1" as="geometry">
            <Array as="points">
              <mxPoint x="1480" y="310" />
              <mxPoint x="535" y="310" />
            </Array>
          </mxGeometry>
        </mxCell>
        <mxCell id="qJF8WgJsKNdLkxC4-ePz-32" value="&lt;font style=&quot;font-size: 14px;&quot;&gt;浏览器进程重新导航到新的URL&lt;/font&gt;" style="edgeLabel;html=1;align=center;verticalAlign=middle;resizable=0;points=[];" vertex="1" connectable="0" parent="qJF8WgJsKNdLkxC4-ePz-31">
          <mxGeometry x="0.0365" y="-3" relative="1" as="geometry">
            <mxPoint as="offset" />
          </mxGeometry>
        </mxCell>
        <mxCell id="qJF8WgJsKNdLkxC4-ePz-28" value="status 301或302&lt;br&gt;读取Location&lt;br&gt;重定向" style="rounded=0;whiteSpace=wrap;html=1;strokeColor=#A680B8;strokeWidth=2;fontSize=14;fillColor=none;dashed=1;" vertex="1" parent="1">
          <mxGeometry x="1430" y="430" width="120" height="60" as="geometry" />
        </mxCell>
        <mxCell id="qJF8WgJsKNdLkxC4-ePz-35" value="status 200" style="rounded=0;whiteSpace=wrap;html=1;strokeColor=#9673a6;strokeWidth=1;fontSize=14;fillColor=#e1d5e7;" vertex="1" parent="1">
          <mxGeometry x="1430" y="510" width="120" height="60" as="geometry" />
        </mxCell>
        <mxCell id="qJF8WgJsKNdLkxC4-ePz-36" value="下载器下载" style="rounded=0;whiteSpace=wrap;html=1;strokeColor=#6c8ebf;strokeWidth=2;fontSize=14;fillColor=none;dashed=1;" vertex="1" parent="1">
          <mxGeometry x="1750" y="270" width="120" height="60" as="geometry" />
        </mxCell>
        <mxCell id="qJF8WgJsKNdLkxC4-ePz-41" style="edgeStyle=orthogonalEdgeStyle;orthogonalLoop=1;jettySize=auto;html=1;entryX=0.935;entryY=1.002;entryDx=0;entryDy=0;entryPerimeter=0;strokeColor=#6C8EBF;strokeWidth=2;fontSize=14;exitX=1;exitY=0.5;exitDx=0;exitDy=0;shape=link;" edge="1" parent="1" source="qJF8WgJsKNdLkxC4-ePz-37" target="qJF8WgJsKNdLkxC4-ePz-39">
          <mxGeometry relative="1" as="geometry">
            <Array as="points">
              <mxPoint x="2114" y="740" />
            </Array>
          </mxGeometry>
        </mxCell>
        <mxCell id="qJF8WgJsKNdLkxC4-ePz-37" value="接收导航消息&lt;br&gt;与网络进程建立管道" style="rounded=0;whiteSpace=wrap;html=1;strokeColor=#6c8ebf;strokeWidth=1;fontSize=14;fillColor=#dae8fc;" vertex="1" parent="1">
          <mxGeometry x="1910" y="710" width="120" height="60" as="geometry" />
        </mxCell>
        <mxCell id="qJF8WgJsKNdLkxC4-ePz-39" value="读取响应体" style="rounded=0;whiteSpace=wrap;html=1;strokeColor=#A680B8;strokeWidth=2;fontSize=14;fillColor=#E1D5E7;gradientColor=none;" vertex="1" parent="1">
          <mxGeometry x="1590" y="465" width="560" height="65" as="geometry" />
        </mxCell>
        <mxCell id="qJF8WgJsKNdLkxC4-ePz-45" style="edgeStyle=orthogonalEdgeStyle;orthogonalLoop=1;jettySize=auto;html=1;entryX=0;entryY=0.5;entryDx=0;entryDy=0;strokeColor=#6C8EBF;strokeWidth=2;fontSize=14;" edge="1" parent="1" source="qJF8WgJsKNdLkxC4-ePz-43" target="qJF8WgJsKNdLkxC4-ePz-44">
          <mxGeometry relative="1" as="geometry" />
        </mxCell>
        <mxCell id="qJF8WgJsKNdLkxC4-ePz-43" value="确认提交" style="rounded=0;whiteSpace=wrap;html=1;strokeColor=#6c8ebf;strokeWidth=1;fontSize=14;fillColor=#dae8fc;" vertex="1" parent="1">
          <mxGeometry x="2170" y="710" width="120" height="60" as="geometry" />
        </mxCell>
        <mxCell id="qJF8WgJsKNdLkxC4-ePz-44" value="接收确认提交消息" style="rounded=0;whiteSpace=wrap;html=1;strokeColor=#6c8ebf;strokeWidth=1;fontSize=14;fillColor=#dae8fc;" vertex="1" parent="1">
          <mxGeometry x="2340" y="220" width="120" height="60" as="geometry" />
        </mxCell>
        <mxCell id="qJF8WgJsKNdLkxC4-ePz-46" value="更新浏览器状态&lt;br&gt;卸载当前页面" style="rounded=0;whiteSpace=wrap;html=1;strokeColor=#6c8ebf;strokeWidth=1;fontSize=14;fillColor=#dae8fc;" vertex="1" parent="1">
          <mxGeometry x="2520" y="220" width="120" height="60" as="geometry" />
        </mxCell>
        <mxCell id="qJF8WgJsKNdLkxC4-ePz-47" value="准备解析渲染新的页面" style="rounded=0;whiteSpace=wrap;html=1;strokeColor=#6c8ebf;strokeWidth=1;fontSize=14;fillColor=#dae8fc;" vertex="1" parent="1">
          <mxGeometry x="2390" y="710" width="120" height="60" as="geometry" />
        </mxCell>
        <mxCell id="qJF8WgJsKNdLkxC4-ePz-49" value="准备渲染进程&lt;br&gt;（最新Chrome架构不需要）" style="rounded=0;whiteSpace=wrap;html=1;strokeColor=#6c8ebf;strokeWidth=2;fontSize=14;fillColor=none;dashed=1;" vertex="1" parent="1">
          <mxGeometry x="950" y="220" width="120" height="60" as="geometry" />
        </mxCell>
      </root>
    </mxGraphModel>
  </diagram>
</mxfile>
